<svg id="Layer_1" data-name="Layer 1" xmlns="http://www.w3.org/2000/svg" viewBox="0 0 190 71"><defs><style>.cls-1{fill:#cee812;}.cls-2{fill:#fff;}</style></defs><path class="cls-1" d="M19.182,45.874a17.96277,17.96277,0,0,1-7.82-1.564,15.52752,15.52752,0,0,1-5.336-4.186,18.692,18.692,0,0,1-3.082-5.612,19.37643,19.37643,0,0,1-.966-5.888V27.612A19.37507,19.37507,0,0,1,2.99,21.448a16.80613,16.80613,0,0,1,3.082-5.566,15.28326,15.28326,0,0,1,5.29-3.956,17.64226,17.64226,0,0,1,7.59-1.518,18.17151,18.17151,0,0,1,8.05,1.702,14.00893,14.00893,0,0,1,5.566,4.738,14.1614,14.1614,0,0,1,2.484,7.038h-7.59a7.17976,7.17976,0,0,0-1.472-3.45A7.55554,7.55554,0,0,0,23,18.228a10.03378,10.03378,0,0,0-4.048-.782,9.708,9.708,0,0,0-4.002.782,8.10462,8.10462,0,0,0-2.944,2.208,10.57616,10.57616,0,0,0-1.794,3.404,14.59238,14.59238,0,0,0-.598,4.324,14.88714,14.88714,0,0,0,.598,4.324,10.71319,10.71319,0,0,0,1.84,3.404A8.43813,8.43813,0,0,0,15.088,38.1a10.71,10.71,0,0,0,4.094.736,9.895,9.895,0,0,0,5.888-1.702,6.89948,6.89948,0,0,0,2.944-4.692h7.544a14.95788,14.95788,0,0,1-2.484,6.762,14.64,14.64,0,0,1-5.566,4.876A18.02879,18.02879,0,0,1,19.182,45.874ZM37.0296,45l11.086-33.58h12.19L71.8056,45h-7.82l-9.292-28.382,2.392.966h-5.934l2.484-.966L44.5736,45Zm8.418-8.326,2.3-6.256h13.156l2.346,6.256ZM76.1861,45V11.144h7.544V45Zm20.378,0-9.844-14.444h8.28L105.304,45ZM81.7061,34.236V28.302h8.28a5.93533,5.93533,0,0,0,2.852-.644,4.654,4.654,0,0,0,1.886-1.886,5.77416,5.77416,0,0,0,.69-2.852,5.517,5.517,0,0,0-.69-2.806,4.31186,4.31186,0,0,0-1.886-1.886,5.61254,5.61254,0,0,0-2.852-.69h-8.28V11.144h7.682a18.76716,18.76716,0,0,1,7.268,1.288,10.00257,10.00257,0,0,1,4.7379,3.726,11.04662,11.04662,0,0,1,1.656,6.256v.736a10.73421,10.73421,0,0,1-1.702,6.21,10.10911,10.10911,0,0,1-4.7379,3.68,19.68149,19.68149,0,0,1-7.222,1.196ZM116.412,45.184V38.146h6.256a12.25351,12.25351,0,0,0,4.232-.69,9.60288,9.60288,0,0,0,3.22-2.024,8.79786,8.79786,0,0,0,2.024-3.174,11.96669,11.96669,0,0,0,.69-4.14,11.86438,11.86438,0,0,0-.69-4.186,8.36413,8.36413,0,0,0-2.024-3.128,8.53981,8.53981,0,0,0-3.22-1.932,12.25351,12.25351,0,0,0-4.232-.69h-6.256V11.144h5.842a21.74342,21.74342,0,0,1,7.958,1.334,16.41515,16.41515,0,0,1,5.704,3.634,14.52269,14.52269,0,0,1,3.404,5.29,16.92912,16.92912,0,0,1,1.15,6.21v1.012a16.6856,16.6856,0,0,1-1.15,6.026,15.51174,15.51174,0,0,1-3.404,5.336,17.156,17.156,0,0,1-5.704,3.772,20.48709,20.48709,0,0,1-7.958,1.426Zm-6.624,0V11.144h7.544v34.04Z"/><path class="cls-2" d="M146.507,45V19.792h7.36V45Zm-3.358-19.78V19.792h10.718V25.22Zm6.21-7.912a4.08144,4.08144,0,0,1-3.082-1.058,4.04006,4.04006,0,0,1-.966-2.76,3.93387,3.93387,0,0,1,.966-2.76,3.98159,3.98159,0,0,1,3.082-1.104,3.659,3.659,0,0,1,4.048,3.864,3.92772,3.92772,0,0,1-1.012,2.76A3.92364,3.92364,0,0,1,149.359,17.308Zm22.769,28.014a17.18168,17.18168,0,0,1-6.164-.92,6.48036,6.48036,0,0,1-3.45-3.174,14.48811,14.48811,0,0,1-1.058-6.072V12.984h6.854V35.432a3.84821,3.84821,0,0,0,.92,2.76,3.779,3.779,0,0,0,2.714.92h3.726v6.21Zm-14.49-20.148V19.792H175.67v5.382Z"/><path class="cls-1" d="M135.208,64V51.184h1.824V56.68h-.288a8.84781,8.84781,0,0,1,.504-3.192,4.06356,4.06356,0,0,1,1.584-1.992,4.74569,4.74569,0,0,1,2.664-.696h.096a4.2081,4.2081,0,0,1,3.576,1.512,6.997,6.997,0,0,1,1.176,4.368V64H144.04V56.2a3.31576,3.31576,0,0,0-.84-2.376,2.97729,2.97729,0,0,0-2.304-.912,3.31065,3.31065,0,0,0-2.448.936,3.37344,3.37344,0,0,0-.936,2.496V64Zm21.256.432a7.09359,7.09359,0,0,1-2.952-.576,6.809,6.809,0,0,1-2.16-1.512,6.6304,6.6304,0,0,1-1.752-4.536v-.432a6.587,6.587,0,0,1,.456-2.4,6.51849,6.51849,0,0,1,3.504-3.648,7.6085,7.6085,0,0,1,5.808,0,6.51852,6.51852,0,0,1,3.504,3.648,6.587,6.587,0,0,1,.456,2.4v.432a6.587,6.587,0,0,1-.456,2.4,6.34831,6.34831,0,0,1-1.32,2.136,6.52881,6.52881,0,0,1-2.136,1.512A7.09357,7.09357,0,0,1,156.464,64.432Zm0-2.064a4.56285,4.56285,0,0,0,2.448-.624,4.16638,4.16638,0,0,0,1.56-1.728,5.24858,5.24858,0,0,0,.552-2.424,5.302,5.302,0,0,0-.552-2.448,4.17068,4.17068,0,0,0-1.584-1.704,4.51549,4.51549,0,0,0-2.424-.624,4.59386,4.59386,0,0,0-2.424.624,4.17094,4.17094,0,0,0-1.584,1.704,5.30209,5.30209,0,0,0-.552,2.448,5.44588,5.44588,0,0,0,.528,2.424,4.39367,4.39367,0,0,0,1.56,1.728A4.68885,4.68885,0,0,0,156.464,62.368ZM170.288,64l2.592-12.384H176L179.024,64h-1.968l-3.024-12.336h.768L172.184,64Zm-1.176,0V62.176h2.664V64Zm-.528,0L164.96,51.184h2.208L170.696,64Zm8.952,0V62.176H180.2V64Zm1.08,0,3.072-12.816h2.088L180.632,64Z"/></svg>