<svg xmlns="http://www.w3.org/2000/svg" width="20" height="16" viewBox="0 0 20 16">
  <g id="Group_3" data-name="Group 3" transform="translate(0 -0.5)">
    <path id="Fill_1" data-name="Fill 1" d="M2.691,16h0L2.1,15.4,17.265,0l.59.6L2.692,16ZM10,13.776a8.8,8.8,0,0,1-3.077-.585l.666-.661a7.832,7.832,0,0,0,2.411.4,10.542,10.542,0,0,0,6.548-2.775A19.479,19.479,0,0,0,18.6,8.2c.1-.106.2-.217.312-.35-.113-.13-.215-.245-.312-.351a19.284,19.284,0,0,0-2.054-1.952c-.33-.27-.657-.519-.97-.738l.474-.7A19.809,19.809,0,0,1,20,7.852l0,.006a20.066,20.066,0,0,1-2.925,2.956A11.737,11.737,0,0,1,10,13.776ZM4.4,11.893h0A19.715,19.715,0,0,1,0,7.852l0-.006A20.066,20.066,0,0,1,2.929,4.889,11.737,11.737,0,0,1,10,1.927a9,9,0,0,1,3.383.7l-.639.659A7.984,7.984,0,0,0,10,2.773,10.537,10.537,0,0,0,3.451,5.548,19.537,19.537,0,0,0,1.4,7.5c-.1.11-.2.225-.312.351.091.1.193.219.312.35a19.736,19.736,0,0,0,2.054,1.954,16.312,16.312,0,0,0,1.395,1.026l-.45.711Zm5.341-.535a3.664,3.664,0,0,1-1.383-.267l.308-.787a2.861,2.861,0,0,0,1.075.208,2.943,2.943,0,0,0,2.917-2.963,2.994,2.994,0,0,0-.122-.851l.8-.243a3.841,3.841,0,0,1,.158,1.094A3.784,3.784,0,0,1,9.737,11.358ZM6.576,9.409h0A3.836,3.836,0,0,1,6.25,7.852,3.784,3.784,0,0,1,10,4.043a3.677,3.677,0,0,1,1.654.389l-.368.76A2.849,2.849,0,0,0,10,4.889,2.943,2.943,0,0,0,7.083,7.852a2.987,2.987,0,0,0,.255,1.211l-.76.345Z" transform="translate(0 0.5)" fill="#8e8d8d"/>
  </g>
</svg>
