<svg xmlns="http://www.w3.org/2000/svg" width="19.523" height="11.775" viewBox="0 0 19.523 11.775">
  <g id="Group_1785" data-name="Group 1785" transform="translate(-2.902 -6.5)">
    <path id="Path_1182" data-name="Path 1182" d="M12.641,18.275a11.475,11.475,0,0,0,9.72-5.631.546.546,0,0,0,0-.514A11.475,11.475,0,0,0,12.641,6.5c-5.566,0-9.516,5.352-9.634,5.577a.514.514,0,0,0,0,.621C3.125,12.934,7.075,18.275,12.641,18.275Zm0-10.7a10.5,10.5,0,0,1,8.617,4.817A10.459,10.459,0,0,1,12.695,17.2c-4.335,0-7.7-3.747-8.617-4.817C5,11.317,8.359,7.57,12.641,7.57Z"/>
    <path id="Path_1183" data-name="Path 1183" d="M12.239,15.868A3.629,3.629,0,1,0,8.61,12.239a3.629,3.629,0,0,0,3.629,3.629Zm0-6.187A2.558,2.558,0,1,1,9.68,12.239h0A2.558,2.558,0,0,1,12.239,9.68Z" transform="translate(0.402 0.149)"/>
  </g>
</svg>
