<svg width="190" height="71" viewBox="0 0 190 71" fill="none" xmlns="http://www.w3.org/2000/svg">
<path d="M19.182 45.874C16.146 45.874 13.5393 45.3527 11.362 44.31C9.18467 43.2367 7.406 41.8413 6.026 40.124C4.646 38.376 3.61867 36.5053 2.944 34.512C2.3 32.488 1.978 30.5253 1.978 28.624V27.612C1.978 25.5267 2.31533 23.472 2.99 21.448C3.66467 19.3933 4.692 17.538 6.072 15.882C7.48267 14.226 9.246 12.9073 11.362 11.926C13.5087 10.914 16.0387 10.408 18.952 10.408C21.988 10.408 24.6713 10.9753 27.002 12.11C29.3327 13.2447 31.188 14.824 32.568 16.848C33.9787 18.8413 34.8067 21.1873 35.052 23.886L27.462 23.886C27.2473 22.5367 26.7567 21.3867 25.99 20.436C25.2233 19.4853 24.2267 18.7493 23 18.228C21.804 17.7067 20.4547 17.446 18.952 17.446C17.4493 17.446 16.1153 17.7067 14.95 18.228C13.7847 18.7493 12.8033 19.4853 12.006 20.436C11.2393 21.3867 10.6413 22.5213 10.212 23.84C9.81333 25.128 9.614 26.5693 9.614 28.164C9.614 29.728 9.81333 31.1693 10.212 32.488C10.6413 33.776 11.2547 34.9107 12.052 35.892C12.88 36.8427 13.892 37.5787 15.088 38.1C16.284 38.5907 17.6487 38.836 19.182 38.836C21.5127 38.836 23.4753 38.2687 25.07 37.134C26.6953 35.9993 27.6767 34.4353 28.014 32.442H35.558C35.282 34.8953 34.454 37.1493 33.074 39.204C31.7247 41.228 29.8693 42.8533 27.508 44.08C25.1773 45.276 22.402 45.874 19.182 45.874ZM37.0296 45L48.1156 11.42H60.3056L71.8056 45L63.9856 45L54.6936 16.618L57.0856 17.584H51.1516L53.6356 16.618L44.5736 45H37.0296ZM45.4476 36.674L47.7476 30.418H60.9036L63.2496 36.674H45.4476ZM76.1861 45V11.144L83.7301 11.144V45H76.1861ZM96.5641 45L86.7201 30.556H95.0001L105.304 45H96.5641ZM81.7061 34.236V28.302H89.9861C91.0901 28.302 92.0407 28.0873 92.8381 27.658C93.6661 27.198 94.2947 26.5693 94.7241 25.772C95.1841 24.944 95.4141 23.9933 95.4141 22.92C95.4141 21.8467 95.1841 20.9113 94.7241 20.114C94.2947 19.286 93.6661 18.6573 92.8381 18.228C92.0407 17.768 91.0901 17.538 89.9861 17.538H81.7061V11.144H89.3881C92.1787 11.144 94.6014 11.5733 96.6561 12.432C98.7107 13.26 100.29 14.502 101.394 16.158C102.498 17.814 103.05 19.8993 103.05 22.414V23.15C103.05 25.634 102.483 27.704 101.348 29.36C100.244 30.9853 98.6647 32.212 96.6101 33.04C94.5861 33.8373 92.1787 34.236 89.3881 34.236H81.7061ZM116.412 45.184V38.146H122.668C124.232 38.146 125.642 37.916 126.9 37.456C128.157 36.9653 129.23 36.2907 130.12 35.432C131.009 34.5427 131.684 33.4847 132.144 32.258C132.604 31.0007 132.834 29.6207 132.834 28.118C132.834 26.554 132.604 25.1587 132.144 23.932C131.684 22.7053 131.009 21.6627 130.12 20.804C129.23 19.9453 128.157 19.3013 126.9 18.872C125.642 18.412 124.232 18.182 122.668 18.182H116.412V11.144H122.254C125.29 11.144 127.942 11.5887 130.212 12.478C132.481 13.3673 134.382 14.5787 135.916 16.112C137.449 17.6453 138.584 19.4087 139.32 21.402C140.086 23.3647 140.47 25.4347 140.47 27.612V28.624C140.47 30.648 140.086 32.6567 139.32 34.65C138.584 36.6127 137.449 38.3913 135.916 39.986C134.382 41.55 132.481 42.8073 130.212 43.758C127.942 44.7087 125.29 45.184 122.254 45.184H116.412ZM109.788 45.184V11.144L117.332 11.144V45.184H109.788ZM179.47 45V36.766H187.566V45H179.47Z" fill="#CEE812"/>
<path d="M146.507 45V19.792H153.867V45H146.507ZM143.149 25.22V19.792H153.867V25.22H143.149ZM149.359 17.308C147.979 17.308 146.952 16.9553 146.277 16.25C145.633 15.514 145.311 14.594 145.311 13.49C145.311 12.3553 145.633 11.4353 146.277 10.73C146.952 9.994 147.979 9.626 149.359 9.626C150.739 9.626 151.751 9.994 152.395 10.73C153.07 11.4353 153.407 12.3553 153.407 13.49C153.407 14.594 153.07 15.514 152.395 16.25C151.751 16.9553 150.739 17.308 149.359 17.308ZM172.128 45.322C169.583 45.322 167.528 45.0153 165.964 44.402C164.4 43.758 163.25 42.7 162.514 41.228C161.809 39.7253 161.456 37.7013 161.456 35.156V12.984H168.31V35.432C168.31 36.628 168.617 37.548 169.23 38.192C169.874 38.8053 170.779 39.112 171.944 39.112H175.67V45.322H172.128ZM157.638 25.174V19.792L175.67 19.792V25.174L157.638 25.174Z" fill="white"/>
<path d="M135.208 64V51.184H137.032V56.68H136.744C136.744 55.416 136.912 54.352 137.248 53.488C137.6 52.608 138.128 51.944 138.832 51.496C139.536 51.032 140.424 50.8 141.496 50.8H141.592C143.208 50.8 144.4 51.304 145.168 52.312C145.952 53.32 146.344 54.776 146.344 56.68V64H144.04V56.2C144.04 55.208 143.76 54.416 143.2 53.824C142.64 53.216 141.872 52.912 140.896 52.912C139.888 52.912 139.072 53.224 138.448 53.848C137.824 54.472 137.512 55.304 137.512 56.344V64H135.208ZM156.464 64.432C155.344 64.432 154.36 64.24 153.512 63.856C152.664 63.472 151.944 62.968 151.352 62.344C150.776 61.704 150.336 60.992 150.032 60.208C149.744 59.424 149.6 58.624 149.6 57.808V57.376C149.6 56.56 149.752 55.76 150.056 54.976C150.36 54.176 150.808 53.464 151.4 52.84C151.992 52.2 152.712 51.696 153.56 51.328C154.408 50.944 155.376 50.752 156.464 50.752C157.552 50.752 158.52 50.944 159.368 51.328C160.216 51.696 160.936 52.2 161.528 52.84C162.12 53.464 162.568 54.176 162.872 54.976C163.176 55.76 163.328 56.56 163.328 57.376V57.808C163.328 58.624 163.176 59.424 162.872 60.208C162.584 60.992 162.144 61.704 161.552 62.344C160.976 62.968 160.264 63.472 159.416 63.856C158.568 64.24 157.584 64.432 156.464 64.432ZM156.464 62.368C157.424 62.368 158.24 62.16 158.912 61.744C159.6 61.312 160.12 60.736 160.472 60.016C160.84 59.296 161.024 58.488 161.024 57.592C161.024 56.68 160.84 55.864 160.472 55.144C160.104 54.424 159.576 53.856 158.888 53.44C158.216 53.024 157.408 52.816 156.464 52.816C155.536 52.816 154.728 53.024 154.04 53.44C153.352 53.856 152.824 54.424 152.456 55.144C152.088 55.864 151.904 56.68 151.904 57.592C151.904 58.488 152.08 59.296 152.432 60.016C152.8 60.736 153.32 61.312 153.992 61.744C154.68 62.16 155.504 62.368 156.464 62.368ZM170.288 64L172.88 51.616H176L179.024 64H177.056L174.032 51.664H174.8L172.184 64H170.288ZM169.112 64V62.176H171.776V64H169.112ZM168.584 64L164.96 51.184H167.168L170.696 64H168.584ZM177.536 64V62.176H180.2V64H177.536ZM178.616 64L181.688 51.184H183.776L180.632 64H178.616Z" fill="#CEE812"/>
</svg>
