<svg id="Layer_1" data-name="Layer 1" xmlns="http://www.w3.org/2000/svg" viewBox="0 0 190 71"><defs><style>.cls-1{fill:#cee812;}.cls-2{fill:#fff;}</style></defs><path class="cls-1" d="M19.18,45.87a18,18,0,0,1-7.82-1.56A15.42,15.42,0,0,1,6,40.12a18.65,18.65,0,0,1-3.09-5.61,19.44,19.44,0,0,1-1-5.89v-1a19.49,19.49,0,0,1,1-6.16,16.72,16.72,0,0,1,3.08-5.57,15.38,15.38,0,0,1,5.29-4A17.55,17.55,0,0,1,19,10.41,18.22,18.22,0,0,1,27,12.11a14,14,0,0,1,5.57,4.74,14.11,14.11,0,0,1,2.48,7H27.46A7.1,7.1,0,0,0,26,20.44a7.55,7.55,0,0,0-3-2.21A10.09,10.09,0,0,0,19,17.45a9.74,9.74,0,0,0-4,.78A8,8,0,0,0,12,20.44a10.49,10.49,0,0,0-1.8,3.4,14.55,14.55,0,0,0-.6,4.32,14.86,14.86,0,0,0,.6,4.33,10.62,10.62,0,0,0,1.84,3.4,8.43,8.43,0,0,0,3,2.21,10.69,10.69,0,0,0,4.09.74,9.86,9.86,0,0,0,5.89-1.71A6.82,6.82,0,0,0,28,32.44h7.55a15,15,0,0,1-2.49,6.76,14.62,14.62,0,0,1-5.56,4.88A18,18,0,0,1,19.18,45.87ZM37,45,48.12,11.42H60.31L71.81,45H64l-9.3-28.38,2.4,1H51.15l2.49-1L44.57,45Zm8.42-8.33,2.3-6.25H60.9l2.35,6.25ZM76.19,45V11.14h7.54V45Zm20.37,0L86.72,30.56H95L105.3,45ZM81.71,34.24V28.3H90a5.94,5.94,0,0,0,2.85-.64,4.62,4.62,0,0,0,1.88-1.89,5.78,5.78,0,0,0,.69-2.85,5.55,5.55,0,0,0-.69-2.81,4.32,4.32,0,0,0-1.88-1.88A5.62,5.62,0,0,0,90,17.54H81.71v-6.4h7.68a18.77,18.77,0,0,1,7.27,1.29,10,10,0,0,1,4.73,3.73,11,11,0,0,1,1.66,6.25v.74a10.79,10.79,0,0,1-1.7,6.21A10.15,10.15,0,0,1,96.61,33a19.6,19.6,0,0,1-7.22,1.2Zm34.7,10.94v-7h6.26a12.27,12.27,0,0,0,4.23-.69,9.56,9.56,0,0,0,3.22-2,8.82,8.82,0,0,0,2-3.17,12,12,0,0,0,.69-4.14,11.88,11.88,0,0,0-.69-4.19,8.41,8.41,0,0,0-2-3.13,8.63,8.63,0,0,0-3.22-1.93,12.27,12.27,0,0,0-4.23-.69h-6.26v-7h5.84a21.72,21.72,0,0,1,8,1.34,16.54,16.54,0,0,1,5.71,3.63,14.69,14.69,0,0,1,3.4,5.29,16.83,16.83,0,0,1,1.15,6.21v1a16.58,16.58,0,0,1-1.15,6,15.7,15.7,0,0,1-3.4,5.34,17.28,17.28,0,0,1-5.71,3.77,20.5,20.5,0,0,1-8,1.42Zm-6.62,0v-34h7.54v34Z"/><path class="cls-2" d="M146.51,45V19.79h7.36V45Zm-3.36-19.78V19.79h10.72v5.43Zm6.21-7.91a4.05,4.05,0,0,1-3.08-1.06,4,4,0,0,1-1-2.76,3.92,3.92,0,0,1,1-2.76,4,4,0,0,1,3.08-1.1,3.65,3.65,0,0,1,4,3.86,4,4,0,0,1-1,2.76A3.93,3.93,0,0,1,149.36,17.31Zm22.77,28A17.07,17.07,0,0,1,166,44.4a6.49,6.49,0,0,1-3.45-3.17,14.58,14.58,0,0,1-1-6.07V13h6.85V35.43a3.85,3.85,0,0,0,.92,2.76,3.74,3.74,0,0,0,2.71.92h3.73v6.21ZM157.64,25.17V19.79h18v5.38Z"/><path class="cls-1" d="M135.21,64V51.18H137v5.5h-.29a8.74,8.74,0,0,1,.51-3.19,4,4,0,0,1,1.58-2,4.71,4.71,0,0,1,2.67-.7h.09a4.21,4.21,0,0,1,3.58,1.51,7,7,0,0,1,1.17,4.37V64H144V56.2a3.34,3.34,0,0,0-.84-2.38,3,3,0,0,0-2.3-.91,3.29,3.29,0,0,0-2.45.94,3.33,3.33,0,0,0-.94,2.49V64Zm21.25.43a7.16,7.16,0,0,1-3-.57,6.78,6.78,0,0,1-2.16-1.52A7.16,7.16,0,0,1,150,60.21a6.91,6.91,0,0,1-.43-2.4v-.43a6.44,6.44,0,0,1,.46-2.4,6.47,6.47,0,0,1,3.5-3.65,7.57,7.57,0,0,1,5.81,0,6.47,6.47,0,0,1,3.5,3.65,6.44,6.44,0,0,1,.46,2.4v.43a6.51,6.51,0,0,1-.46,2.4,6.43,6.43,0,0,1-1.32,2.13,6.54,6.54,0,0,1-2.13,1.52A7.2,7.2,0,0,1,156.46,64.43Zm0-2.06a4.53,4.53,0,0,0,2.45-.63A4.11,4.11,0,0,0,160.47,60a5.24,5.24,0,0,0,.55-2.43,5.29,5.29,0,0,0-.55-2.45,4.18,4.18,0,0,0-1.58-1.7,4.48,4.48,0,0,0-2.43-.62,4.57,4.57,0,0,0-2.42.62,4.11,4.11,0,0,0-1.58,1.7,5.29,5.29,0,0,0-.56,2.45,5.49,5.49,0,0,0,.53,2.43A4.39,4.39,0,0,0,154,61.74,4.65,4.65,0,0,0,156.46,62.37ZM170.29,64l2.59-12.38H176L179,64h-2l-3-12.34h.77L172.18,64Zm-1.18,0V62.18h2.67V64Zm-.53,0L165,51.18h2.21L170.7,64Zm9,0V62.18h2.66V64Zm1.08,0,3.07-12.82h2.09L180.63,64Z"/></svg>