<svg width="40" height="25" viewBox="0 0 40 25" fill="none" xmlns="http://www.w3.org/2000/svg">
<g clip-path="url(#clip0_1070_16749)">
<path d="M25.0019 3.05859H14.4336V22.1949H25.0019V3.05859Z" fill="#FF5F00"/>
<path d="M15.1017 12.6246C15.1017 8.73651 16.9134 5.28792 19.6981 3.05648C17.6515 1.43361 15.0682 0.453125 12.2499 0.453125C5.57346 0.453125 0.171875 5.89649 0.171875 12.6246C0.171875 19.3528 5.57346 24.7961 12.2499 24.7961C15.0682 24.7961 17.6515 23.8157 19.6981 22.1928C16.9134 19.9952 15.1017 16.5128 15.1017 12.6246Z" fill="#EB001B"/>
<path d="M39.2567 12.6246C39.2567 19.3528 33.8551 24.7961 27.1786 24.7961C24.3604 24.7961 21.777 23.8157 19.7305 22.1928C22.5487 19.9614 24.3268 16.5128 24.3268 12.6246C24.3268 8.73651 22.5151 5.28792 19.7305 3.05648C21.777 1.43361 24.3604 0.453125 27.1786 0.453125C33.8551 0.453125 39.2567 5.9303 39.2567 12.6246Z" fill="#F79E1B"/>
</g>
<defs>
<clipPath id="clip0_1070_16749">
<rect width="39.086" height="24.343" fill="white" transform="translate(0.171875 0.457031)"/>
</clipPath>
</defs>
</svg>
