<svg xmlns="http://www.w3.org/2000/svg" xmlns:xlink="http://www.w3.org/1999/xlink" width="64" height="64" viewBox="0 0 64 64">
  <defs>
    <clipPath id="clip-path">
      <rect id="Rectangle_3302" data-name="Rectangle 3302" width="80" height="91.846" fill="none"/>
    </clipPath>
    <clipPath id="clip-path-2">
      <path id="Path_44238" data-name="Path 44238" d="M68.225,172.075c-.256.3-.046.978-.1,1.482-.052.487.173.534.577.531,2.359-.017,4.718-.009,7.077-.008.212,0,.425,0,.637,0,.555,0,1.109-.008,1.663.016a.914.914,0,0,1,.833,1.3,1.073,1.073,0,0,1-1.125.583q-1.536,0-3.072,0c-2.063,0-4.126,0-6.188-.015-.465,0-.587.163-.66.576-.443,2.518-.861,5.04-1.222,7.571-.644,4.5-1.12,9.023-1.491,13.555-.288,3.513-.512,7.031-.647,10.554-.094,2.44-.128,4.883-.2,7.324-.009.3.072.4.385.422,1.605.132,3.208.3,4.812.447,5.458.508,10.917,1.009,16.373,1.532.406.039.53-.086.626-.45q1.885-7.15,3.795-14.293.659-2.477,1.321-4.952c.134-.5.406-.873.969-.865s.83.38.97.875c.048.17.089.342.134.513q2.432,9.351,4.854,18.705c.1.407.26.535.672.471.62-.1,1.249-.143,1.875-.2q9.684-.894,19.37-1.775c.37-.033.441-.148.434-.5q-.249-11.849-1.508-23.634-.817-7.69-2.206-15.3c-.086-.471-.263-.58-.719-.576-2.21.017-4.419.015-6.629.013h-2.277a1.78,1.78,0,0,1-.755-.087.891.891,0,0,1-.579-.989.861.861,0,0,1,.756-.79,2.913,2.913,0,0,1,.489-.024h3.093q2.514,0,5.028,0c.132,0,.277.012.422.024a1.385,1.385,0,0,0,.942-.109c.324-.282.048-.926.113-1.407.066-.5-.075-.65-.616-.648q-11.914.032-23.828.015-11.442,0-22.884.006a4.123,4.123,0,0,1-.478-.039,4.214,4.214,0,0,0-.482-.039.687.687,0,0,0-.555.195" transform="translate(-64.308 -171.88)" fill="none"/>
    </clipPath>
    <clipPath id="clip-Short_1">
      <rect width="64" height="64"/>
    </clipPath>
  </defs>
  <g id="Short_1" data-name="Short – 1" clip-path="url(#clip-Short_1)">
    <g id="Group_2753" data-name="Group 2753" transform="translate(-8 -19.403)">
      <g id="Group_2750" data-name="Group 2750">
        <g id="Group_2749" data-name="Group 2749" clip-path="url(#clip-path)">
          <path id="Path_44233" data-name="Path 44233" d="M92.624,171.952q11.914,0,23.827-.015c.541,0,.682.152.616.648-.064.481.212,1.125-.113,1.407-.274.238-.9.084-1.364.085q-4.011.006-8.021,0a3.687,3.687,0,0,0-.588.024.861.861,0,0,0-.756.79.891.891,0,0,0,.579.989,1.78,1.78,0,0,0,.755.087c2.969,0,5.937.011,8.906-.012.457,0,.633.106.719.577q1.4,7.608,2.206,15.3,1.252,11.784,1.508,23.634c.007.35-.064.464-.434.5q-9.686.872-19.37,1.775c-.626.058-1.255.1-1.875.2-.412.064-.567-.063-.672-.471q-2.411-9.357-4.854-18.705c-.045-.171-.086-.343-.134-.513-.14-.5-.415-.867-.97-.875s-.835.368-.969.865q-.664,2.475-1.321,4.952-1.9,7.145-3.795,14.293c-.1.364-.219.489-.626.45-5.456-.523-10.915-1.024-16.373-1.532-1.6-.149-3.207-.315-4.812-.447-.313-.026-.394-.123-.385-.422.072-2.441.106-4.884.2-7.324.135-3.523.36-7.04.647-10.554.371-4.532.847-9.052,1.491-13.555.362-2.532.779-5.053,1.222-7.571.073-.413.194-.58.66-.577,3.086.025,6.173.011,9.26.016a1.074,1.074,0,0,0,1.125-.583.914.914,0,0,0-.833-1.3c-.765-.032-1.533-.013-2.3-.013-2.359,0-4.718-.009-7.077.008-.4,0-.629-.044-.577-.531.053-.5-.157-1.179.1-1.482.3-.355.994-.116,1.515-.117q11.442-.013,22.884-.006" transform="translate(-53.786 -143.757)" fill="#303840"/>
        </g>
      </g>
      <g id="Group_2752" data-name="Group 2752" transform="translate(10.522 28.123)">
        <g id="Group_2751" data-name="Group 2751" clip-path="url(#clip-path-2)">
          <path id="Path_44234" data-name="Path 44234" d="M352.714,194.785h0a4.581,4.581,0,0,1-2.5-5.977L363.8,155.652a4.581,4.581,0,1,1,8.478,3.475L358.69,192.283a4.582,4.582,0,0,1-5.977,2.5" transform="translate(-303.144 -155.927)" fill="#455667"/>
          <path id="Path_44235" data-name="Path 44235" d="M182.508,344.649h0a4.582,4.582,0,0,1-2.5-5.977l13.589-33.157a4.581,4.581,0,1,1,8.478,3.475l-13.588,33.157a4.582,4.582,0,0,1-5.977,2.5" transform="translate(-160.788 -281.27)" fill="#455667"/>
          <path id="Path_44236" data-name="Path 44236" d="M192.674,41.979h0a4.581,4.581,0,0,1-2.5-5.977L203.76,2.846a4.581,4.581,0,1,1,8.478,3.475L198.65,39.477a4.582,4.582,0,0,1-5.977,2.5" transform="translate(-169.291 -28.124)" fill="#455667"/>
          <path id="Path_44237" data-name="Path 44237" d="M2.845,337.812h0a4.582,4.582,0,0,1-2.5-5.977l13.589-33.157a4.581,4.581,0,1,1,8.478,3.475L8.821,335.31a4.582,4.582,0,0,1-5.977,2.5" transform="translate(-10.522 -275.552)" fill="#455667"/>
        </g>
      </g>
    </g>
  </g>
</svg>
